# Blender v2.68 (sub 0) OBJ File: 'awing_engine.blend'
# www.blender.org
mtllib awing_engine.mtl
o engine
v -2.003854 0.699477 -1.664226
v -2.003853 0.699476 3.335774
v -2.246415 0.699476 3.335774
v -2.246416 0.699477 -1.664226
v -2.003854 2.699477 -1.267390
v -2.003853 2.699476 2.957835
v -2.110355 2.699476 2.957835
v -2.110356 2.699477 -1.267390
v 1.947410 0.699476 3.288191
v 1.947410 0.699477 -1.711809
v 2.189972 0.699477 -1.711808
v 2.189972 0.699476 3.288191
v 1.947410 2.699476 2.948046
v 1.947410 2.699477 -1.277179
v 2.053913 2.699477 -1.277179
v 2.053913 2.699476 2.948046
v -0.923528 0.659218 -2.033482
v -0.923527 0.659218 -0.033482
v -0.980433 0.846811 -2.033482
v -0.980433 0.846811 -0.033482
v -0.999648 1.041901 -2.033482
v -0.999648 1.041901 -0.033482
v -0.980433 1.236991 -2.033482
v -0.980433 1.236992 -0.033482
v -0.923528 1.424584 -2.033482
v -0.923527 1.424585 -0.033482
v -0.831118 1.597471 -2.033482
v -0.831117 1.597471 -0.033482
v -0.706755 1.749008 -2.033482
v -0.706754 1.749008 -0.033482
v -0.555218 1.873371 -2.033482
v -0.555218 1.873371 -0.033482
v -0.382331 1.965781 -2.033482
v -0.382331 1.965781 -0.033482
v -0.194738 2.022686 -2.033482
v -0.194738 2.022686 -0.033482
v 0.000352 2.041901 -2.033482
v 0.000353 2.041901 -0.033482
v 0.195443 2.022686 -2.033482
v 0.195443 2.022686 -0.033482
v 0.383036 1.965780 -2.033482
v 0.383036 1.965781 -0.033482
v 0.555923 1.873370 -2.033482
v 0.555923 1.873371 -0.033482
v 0.707459 1.749007 -2.033482
v 0.707460 1.749008 -0.033482
v 0.831822 1.597471 -2.033482
v 0.831822 1.597471 -0.033482
v 0.924232 1.424584 -2.033482
v 0.924232 1.424584 -0.033482
v 0.981137 1.236991 -2.033482
v 0.981138 1.236991 -0.033482
v 1.000352 1.041900 -2.033482
v 1.000352 1.041900 -0.033482
v 0.981137 0.846810 -2.033482
v 0.981137 0.846810 -0.033482
v 0.924231 0.659217 -2.033482
v 0.924231 0.659217 -0.033482
v 1.998066 -0.964631 3.341064
v 1.998066 -0.964630 -0.841756
v 2.186256 -0.946096 3.341064
v 2.186256 -0.946095 -0.841756
v 2.367214 -0.891203 3.341064
v 2.367214 -0.891202 -0.841756
v 2.533986 -0.802061 3.341063
v 2.533986 -0.802061 -0.841755
v 2.680163 -0.682097 3.341063
v 2.680163 -0.682097 -0.841756
v 2.800128 -0.535920 3.341063
v 2.800127 -0.535920 -0.841755
v 2.889269 -0.369148 3.341063
v 2.889269 -0.369148 -0.841756
v 2.944162 -0.188190 3.341063
v 2.944162 -0.188190 -0.841755
v 2.962697 -0.000000 3.341063
v 2.962697 0.000000 -0.841755
v 2.944162 0.188190 3.341063
v 2.944162 0.188190 -0.841755
v 2.889269 0.369148 3.341063
v 2.889269 0.369148 -0.841755
v 2.800128 0.535920 3.341063
v 2.800127 0.535920 -0.841755
v 2.680163 0.682097 3.341063
v 2.680163 0.682097 -0.841755
v 2.533986 0.802061 3.341063
v 2.533986 0.802061 -0.841755
v 2.367214 0.891202 3.341063
v 2.367214 0.891203 -0.841755
v 2.186256 0.946095 3.341063
v 2.186256 0.946096 -0.841755
v 1.998066 0.964630 3.341063
v 1.998066 0.964631 -0.841755
v 1.809876 0.946095 3.341063
v 1.809876 0.946096 -0.841755
v 1.628918 0.891202 3.341064
v 1.628918 0.891202 -0.841755
v 1.462146 0.802060 3.341064
v 1.462146 0.802061 -0.841755
v 1.315969 0.682096 3.341064
v 1.315969 0.682097 -0.841755
v 1.196005 0.535919 3.341064
v 1.196005 0.535920 -0.841755
v 1.106863 0.369147 3.341064
v 1.106863 0.369148 -0.841755
v 1.051971 0.188189 3.341064
v 1.051970 0.188189 -0.841755
v 1.033436 -0.000001 3.341064
v 1.033436 -0.000001 -0.841755
v 1.051971 -0.188191 3.341064
v 1.051971 -0.188191 -0.841755
v 1.106864 -0.369149 3.341064
v 1.106864 -0.369149 -0.841755
v 1.196006 -0.535921 3.341064
v 1.196006 -0.535921 -0.841755
v 1.315970 -0.682098 3.341064
v 1.315970 -0.682098 -0.841755
v 1.462147 -0.802062 3.341064
v 1.462147 -0.802062 -0.841755
v 1.628919 -0.891203 3.341064
v 1.628919 -0.891203 -0.841756
v 1.809878 -0.946096 3.341064
v 1.809878 -0.946096 -0.841756
v -2.003810 -0.964631 3.318387
v -2.003810 -0.964630 -0.841756
v -1.815620 -0.946096 3.318387
v -1.815620 -0.946095 -0.841756
v -1.634661 -0.891203 3.318387
v -1.634662 -0.891202 -0.841756
v -1.467890 -0.802061 3.318387
v -1.467890 -0.802061 -0.841755
v -1.321713 -0.682097 3.318387
v -1.321713 -0.682097 -0.841756
v -1.201749 -0.535920 3.318387
v -1.201749 -0.535920 -0.841755
v -1.112607 -0.369148 3.318387
v -1.112607 -0.369148 -0.841756
v -1.057714 -0.188190 3.318387
v -1.057714 -0.188190 -0.841755
v -1.039179 -0.000000 3.318387
v -1.039179 0.000000 -0.841755
v -1.057714 0.188190 3.318387
v -1.057714 0.188190 -0.841755
v -1.112607 0.369148 3.318387
v -1.112607 0.369148 -0.841755
v -1.201749 0.535920 3.318387
v -1.201749 0.535920 -0.841755
v -1.321713 0.682097 3.318387
v -1.321713 0.682097 -0.841755
v -1.467890 0.802061 3.318388
v -1.467890 0.802061 -0.841755
v -1.634662 0.891202 3.318388
v -1.634662 0.891203 -0.841755
v -1.815620 0.946095 3.318388
v -1.815620 0.946096 -0.841755
v -2.003810 0.964630 3.318388
v -2.003810 0.964631 -0.841755
v -2.192000 0.946095 3.318387
v -2.192000 0.946096 -0.841755
v -2.372958 0.891202 3.318387
v -2.372958 0.891202 -0.841755
v -2.539730 0.802060 3.318387
v -2.539730 0.802061 -0.841755
v -2.685907 0.682096 3.318387
v -2.685907 0.682097 -0.841755
v -2.805871 0.535919 3.318387
v -2.805871 0.535920 -0.841755
v -2.895013 0.369147 3.318387
v -2.895013 0.369148 -0.841755
v -2.949905 0.188189 3.318387
v -2.949906 0.188189 -0.841755
v -2.968440 -0.000001 3.318387
v -2.968441 -0.000001 -0.841755
v -2.949905 -0.188191 3.318387
v -2.949905 -0.188191 -0.841755
v -2.895012 -0.369149 3.318387
v -2.895012 -0.369149 -0.841755
v -2.805870 -0.535921 3.318387
v -2.805870 -0.535921 -0.841755
v -2.685906 -0.682098 3.318387
v -2.685906 -0.682098 -0.841755
v -2.539729 -0.802062 3.318387
v -2.539729 -0.802062 -0.841755
v -2.372957 -0.891203 3.318387
v -2.372957 -0.891203 -0.841756
v -2.191998 -0.946096 3.318387
v -2.191998 -0.946096 -0.841756
v 2.000000 -1.000000 -2.000000
v 2.000000 -1.000000 1.000000
v -2.000000 -1.000000 1.000000
v -2.000000 -1.000000 -2.000000
v 2.000000 1.000000 -2.000000
v 1.999999 1.000000 1.000001
v -2.000001 1.000000 1.000000
v -2.000000 1.000000 -2.000000
vn 1.000000 -0.000000 -0.000000
vn -0.000000 0.185683 0.982610
vn -0.997694 0.067873 0.000000
vn 0.000000 0.194624 -0.980878
vn 0.000000 -1.000000 -0.000000
vn 0.000000 1.000000 0.000000
vn -1.000000 0.000000 0.000000
vn 0.000000 0.212358 -0.977192
vn 0.997694 0.067873 0.000000
vn -0.000000 0.167665 0.985844
vn -0.956940 -0.290285 0.000000
vn -0.995185 -0.098017 0.000000
vn -0.995185 0.098017 0.000000
vn -0.956940 0.290285 0.000000
vn -0.881921 0.471397 0.000000
vn -0.773010 0.634393 0.000000
vn -0.634393 0.773011 0.000000
vn -0.471397 0.881921 0.000000
vn -0.290285 0.956940 -0.000000
vn -0.098017 0.995185 0.000000
vn 0.098018 0.995185 -0.000000
vn 0.290285 0.956940 -0.000000
vn 0.471397 0.881921 -0.000000
vn 0.634394 0.773010 -0.000000
vn 0.773011 0.634393 -0.000000
vn 0.881922 0.471396 -0.000000
vn 0.956941 0.290284 -0.000000
vn 0.995185 0.098016 -0.000000
vn 0.995185 -0.098018 -0.000000
vn 0.956940 -0.290286 -0.000000
vn 0.000000 -0.000000 1.000000
vn 0.098017 -0.995185 -0.000000
vn 0.290285 -0.956940 -0.000000
vn 0.471397 -0.881921 -0.000000
vn 0.634393 -0.773011 -0.000000
vn 0.773011 -0.634393 -0.000000
vn 0.881921 -0.471396 -0.000000
vn 0.956940 -0.290285 -0.000000
vn 0.995185 -0.098017 -0.000000
vn 0.995185 0.098017 -0.000000
vn 0.956940 0.290285 -0.000000
vn 0.634393 0.773010 0.000000
vn 0.471396 0.881921 0.000000
vn 0.098017 0.995185 0.000000
vn -0.098018 0.995185 0.000000
vn -0.634394 0.773010 0.000000
vn -0.773011 0.634393 0.000000
vn -0.881922 0.471396 0.000000
vn -0.956941 0.290284 0.000000
vn -0.995185 0.098016 0.000000
vn -0.995185 -0.098019 -0.000000
vn -0.956940 -0.290286 0.000000
vn -0.881921 -0.471398 -0.000000
vn -0.773010 -0.634394 -0.000000
vn -0.634392 -0.773012 -0.000000
vn -0.471396 -0.881922 -0.000000
vn 0.000000 -0.000000 -1.000000
vn -0.098016 -0.995185 -0.000000
vn -0.290283 -0.956941 -0.000000
vn 0.773010 -0.634394 -0.000000
vn 0.881921 0.471397 0.000000
vn -0.956940 0.290284 0.000000
vn -0.995185 -0.098018 0.000000
vn -0.881921 -0.471397 -0.000000
vn -0.773009 -0.634395 -0.000000
vn -0.634392 -0.773011 -0.000000
vn -0.098015 -0.995185 -0.000000
vn 0.000001 0.212358 -0.977192
vn -0.471396 0.881922 -0.000000
vn -0.000001 -0.000002 1.000000
vn 0.290286 0.956940 -0.000000
vn -0.290283 0.956941 0.000000
vn 0.000001 -0.000000 1.000000
vn -0.000001 0.000000 1.000000
vn -0.000001 -0.000001 1.000000
vn 0.000000 0.000001 1.000000
vn 0.000001 -0.000001 1.000000
vn 0.098018 -0.995185 -0.000000
vn 0.471396 -0.881921 -0.000000
vn 0.000010 0.000008 1.000000
vn 0.773010 -0.634393 -0.000000
vn 0.773010 0.634394 0.000000
vn -0.634393 0.773010 0.000000
vn -0.000001 0.000000 -1.000000
vn -0.634393 -0.773011 -0.000000
vn 0.000000 0.000001 -1.000000
vn -0.000002 0.000002 -1.000000
vn -0.000002 0.000000 -1.000000
vn 0.000001 0.000000 -1.000000
vn 0.000001 -0.000001 -1.000000
vn 0.290284 0.956940 0.000000
vn -0.098017 -0.995185 -0.000000
vn 0.000005 -0.000004 1.000000
vn -0.000001 0.000013 1.000000
vn 0.000002 -0.000004 1.000000
vn 0.634393 0.773011 0.000000
vn -0.956941 0.290283 0.000000
vn -0.881920 -0.471398 0.000000
vn 0.000002 0.000000 -1.000000
vn 0.000000 -0.000003 -1.000000
vn -0.000001 -0.000001 -1.000000
vn -0.000004 0.000012 1.000000
vn -0.000000 -0.000004 1.000000
usemtl Material
s off
f 5//1 6//1 2//1
f 6//2 7//2 2//2
f 7//3 8//3 3//3
f 8//4 5//4 1//4
f 1//5 2//5 3//5
f 8//6 7//6 6//6
f 13//7 14//7 9//7
f 14//8 15//8 10//8
f 15//9 16//9 12//9
f 16//10 13//10 9//10
f 9//5 10//5 11//5
f 16//6 15//6 14//6
f 17//11 18//11 20//11
f 19//12 20//12 22//12
f 21//13 22//13 24//13
f 23//14 24//14 25//14
f 25//15 26//15 28//15
f 27//16 28//16 29//16
f 29//17 30//17 32//17
f 31//18 32//18 34//18
f 33//19 34//19 35//19
f 35//20 36//20 37//20
f 37//21 38//21 40//21
f 39//22 40//22 42//22
f 41//23 42//23 43//23
f 43//24 44//24 45//24
f 45//25 46//25 47//25
f 47//26 48//26 50//26
f 49//27 50//27 52//27
f 51//28 52//28 53//28
f 53//29 54//29 56//29
f 55//30 56//30 58//30
f 24//31 22//31 26//31
f 59//32 60//32 62//32
f 61//33 62//33 64//33
f 63//34 64//34 66//34
f 65//35 66//35 67//35
f 67//36 68//36 70//36
f 69//37 70//37 71//37
f 71//38 72//38 73//38
f 73//39 74//39 75//39
f 75//40 76//40 77//40
f 77//41 78//41 79//41
f 79//26 80//26 81//26
f 81//25 82//25 84//25
f 83//42 84//42 86//42
f 85//43 86//43 88//43
f 87//22 88//22 89//22
f 89//44 90//44 91//44
f 91//45 92//45 94//45
f 93//19 94//19 95//19
f 95//18 96//18 98//18
f 97//46 98//46 100//46
f 99//47 100//47 101//47
f 101//48 102//48 104//48
f 103//49 104//49 105//49
f 105//50 106//50 108//50
f 107//51 108//51 109//51
f 109//52 110//52 112//52
f 111//53 112//53 114//53
f 113//54 114//54 116//54
f 115//55 116//55 118//55
f 117//56 118//56 120//56
f 62//57 60//57 64//57
f 121//58 122//58 60//58
f 119//59 120//59 122//59
f 59//31 61//31 121//31
f 123//32 124//32 126//32
f 125//33 126//33 128//33
f 127//34 128//34 130//34
f 129//35 130//35 132//35
f 131//60 132//60 134//60
f 133//37 134//37 136//37
f 135//38 136//38 138//38
f 137//39 138//39 140//39
f 139//40 140//40 142//40
f 141//41 142//41 143//41
f 143//61 144//61 145//61
f 145//25 146//25 147//25
f 147//42 148//42 150//42
f 149//23 150//23 152//23
f 151//22 152//22 153//22
f 153//44 154//44 155//44
f 155//45 156//45 158//45
f 157//19 158//19 159//19
f 159//18 160//18 162//18
f 161//46 162//46 164//46
f 163//16 164//16 165//16
f 165//48 166//48 168//48
f 167//62 168//62 170//62
f 169//50 170//50 172//50
f 171//63 172//63 174//63
f 173//52 174//52 176//52
f 175//64 176//64 178//64
f 177//65 178//65 180//65
f 179//66 180//66 181//66
f 181//56 182//56 183//56
f 126//57 124//57 128//57
f 185//67 186//67 124//67
f 183//59 184//59 186//59
f 123//31 125//31 185//31
f 187//5 188//5 190//5
f 191//6 194//6 193//6
f 187//1 191//1 188//1
f 188//31 192//31 189//31
f 189//7 193//7 194//7
f 191//57 187//57 190//57
f 1//1 5//1 2//1
f 7//2 3//2 2//2
f 8//3 4//3 3//3
f 4//4 8//4 1//4
f 4//5 1//5 3//5
f 5//6 8//6 6//6
f 14//7 10//7 9//7
f 15//68 11//68 10//68
f 11//9 15//9 12//9
f 12//10 16//10 9//10
f 12//5 9//5 11//5
f 13//6 16//6 14//6
f 19//11 17//11 20//11
f 21//12 19//12 22//12
f 23//13 21//13 24//13
f 44//24 46//24 45//24
f 27//48 25//48 28//48
f 115//31 97//31 111//31
f 31//46 29//46 32//46
f 33//69 31//69 34//69
f 90//44 92//44 91//44
f 151//70 153//70 159//70
f 39//44 37//44 40//44
f 41//71 39//71 42//71
f 180//57 128//57 124//57
f 34//72 36//72 35//72
f 71//73 73//73 63//73
f 49//26 47//26 50//26
f 51//27 49//27 52//27
f 24//14 26//14 25//14
f 55//29 53//29 56//29
f 57//30 55//30 58//30
f 54//74 58//74 56//74
f 18//31 58//31 54//31
f 20//31 18//31 54//31
f 138//57 136//57 150//57
f 48//31 52//31 50//31
f 42//75 46//75 44//75
f 42//31 48//31 46//31
f 52//31 48//31 38//31
f 54//31 52//31 30//31
f 38//76 42//76 40//76
f 36//45 38//45 37//45
f 30//31 52//31 36//31
f 32//77 36//77 34//77
f 48//31 42//31 38//31
f 28//31 26//31 20//31
f 172//57 170//57 168//57
f 22//31 20//31 26//31
f 28//76 54//76 30//76
f 61//78 59//78 62//78
f 63//33 61//33 64//33
f 65//79 63//79 66//79
f 145//80 147//80 149//80
f 69//81 67//81 70//81
f 142//41 144//41 143//41
f 28//16 30//16 29//16
f 70//37 72//37 71//37
f 125//31 127//31 133//31
f 163//31 169//31 173//31
f 66//35 68//35 67//35
f 83//82 81//82 84//82
f 85//42 83//42 86//42
f 87//43 85//43 88//43
f 79//31 81//31 83//31
f 46//25 48//25 47//25
f 93//20 91//20 94//20
f 77//31 79//31 83//31
f 97//18 95//18 98//18
f 99//83 97//83 100//83
f 192//31 193//31 189//31
f 103//48 101//48 104//48
f 174//84 172//84 168//84
f 107//13 105//13 108//13
f 154//57 136//57 134//57
f 111//52 109//52 112//52
f 113//64 111//64 114//64
f 115//65 113//65 116//65
f 117//85 115//85 118//85
f 119//56 117//56 120//56
f 128//57 180//57 168//57
f 118//57 116//57 114//57
f 120//86 118//86 60//86
f 100//57 64//57 60//57
f 108//57 102//57 114//57
f 60//57 118//57 102//57
f 118//57 114//57 102//57
f 36//31 32//31 30//31
f 154//44 156//44 155//44
f 112//57 108//57 114//57
f 20//31 54//31 28//31
f 66//87 70//87 68//87
f 90//57 94//57 92//57
f 94//57 90//57 82//57
f 74//88 78//88 76//88
f 74//89 80//89 78//89
f 82//57 80//57 72//57
f 117//31 119//31 121//31
f 66//90 72//90 70//90
f 66//57 82//57 72//57
f 100//57 98//57 96//57
f 100//57 96//57 64//57
f 152//91 154//91 153//91
f 102//57 100//57 60//57
f 106//57 104//57 102//57
f 66//57 94//57 82//57
f 94//19 96//19 95//19
f 84//57 82//57 86//57
f 88//57 86//57 82//57
f 59//92 121//92 60//92
f 121//59 119//59 122//59
f 61//31 63//31 121//31
f 73//73 75//73 63//73
f 75//76 121//76 63//76
f 63//93 65//93 71//93
f 65//31 67//31 71//31
f 38//31 36//31 52//31
f 80//89 74//89 72//89
f 75//31 77//31 121//31
f 121//31 77//31 83//31
f 78//41 80//41 79//41
f 144//26 146//26 145//26
f 83//31 85//31 87//31
f 121//31 83//31 87//31
f 121//31 87//31 89//31
f 121//31 89//31 91//31
f 76//40 78//40 77//40
f 97//31 115//31 121//31
f 103//31 105//31 101//31
f 93//94 95//94 91//94
f 115//31 117//31 121//31
f 67//31 69//31 71//31
f 91//73 97//73 121//73
f 95//95 97//95 91//95
f 105//31 107//31 109//31
f 113//31 115//31 111//31
f 180//57 178//57 176//57
f 109//31 111//31 97//31
f 97//31 99//31 101//31
f 182//56 184//56 183//56
f 125//78 123//78 126//78
f 127//33 125//33 128//33
f 129//79 127//79 130//79
f 131//35 129//35 132//35
f 133//36 131//36 134//36
f 135//37 133//37 136//37
f 137//38 135//38 138//38
f 139//39 137//39 140//39
f 141//40 139//40 142//40
f 96//57 94//57 64//57
f 74//39 76//39 75//39
f 66//57 64//57 94//57
f 149//96 147//96 150//96
f 151//23 149//23 152//23
f 129//31 131//31 133//31
f 177//31 179//31 173//31
f 157//20 155//20 158//20
f 104//97 106//97 105//97
f 161//18 159//18 162//18
f 163//46 161//46 164//46
f 108//57 106//57 102//57
f 167//48 165//48 168//48
f 169//97 167//97 170//97
f 171//50 169//50 172//50
f 173//51 171//51 174//51
f 175//11 173//11 176//11
f 177//98 175//98 178//98
f 179//54 177//54 180//54
f 146//82 148//82 147//82
f 164//47 166//47 165//47
f 60//57 122//57 120//57
f 90//57 88//57 82//57
f 184//86 182//86 124//86
f 182//57 180//57 124//57
f 179//31 181//31 185//31
f 124//57 186//57 184//57
f 176//57 174//57 180//57
f 112//99 110//99 108//99
f 180//57 174//57 168//57
f 80//26 82//26 81//26
f 168//57 166//57 128//57
f 154//100 158//100 156//100
f 109//31 97//31 101//31
f 144//57 148//57 146//57
f 148//57 144//57 138//57
f 150//57 148//57 138//57
f 154//101 152//101 150//101
f 142//88 140//88 138//88
f 136//57 154//57 150//57
f 162//90 160//90 158//90
f 158//19 160//19 159//19
f 42//23 44//23 43//23
f 166//57 164//57 162//57
f 128//57 166//57 162//57
f 130//57 128//57 162//57
f 132//57 130//57 162//57
f 134//57 132//57 162//57
f 134//57 162//57 158//57
f 123//92 185//92 124//92
f 185//59 183//59 186//59
f 144//89 142//89 138//89
f 135//31 185//31 125//31
f 108//63 110//63 109//63
f 127//31 129//31 133//31
f 133//31 135//31 125//31
f 135//31 137//31 185//31
f 137//31 139//31 185//31
f 139//31 141//31 185//31
f 141//31 143//31 185//31
f 143//31 145//31 185//31
f 185//77 145//77 149//77
f 52//28 54//28 53//28
f 149//31 151//31 185//31
f 185//74 151//74 159//74
f 155//102 157//102 159//102
f 153//103 155//103 159//103
f 88//91 90//91 89//91
f 163//31 159//31 161//31
f 185//31 159//31 173//31
f 177//31 173//31 175//31
f 171//31 173//31 169//31
f 72//38 74//38 73//38
f 159//31 163//31 173//31
f 101//31 105//31 109//31
f 169//31 165//31 167//31
f 158//57 154//57 134//57
f 163//31 165//31 169//31
f 183//31 185//31 181//31
f 179//31 185//31 173//31
f 180//85 182//85 181//85
f 192//6 191//6 193//6
f 100//47 102//47 101//47
f 188//5 189//5 190//5
f 190//7 189//7 194//7
f 194//57 191//57 190//57
f 191//1 192//1 188//1
