# Blender v2.68 (sub 0) OBJ File: 'awing_front.blend'
# www.blender.org
mtllib awing_front.mtl
o front
v 0.924232 0.659218 -2.033482
v 0.924232 0.659218 -4.033482
v 0.981137 0.846811 -2.033482
v 0.981137 0.846811 -4.033482
v 1.000352 1.041901 -2.033482
v 1.000352 1.041901 -4.033482
v 0.981137 1.236991 -2.033482
v 0.981137 1.236992 -4.033482
v 0.924232 1.424584 -2.033482
v 0.924232 1.424585 -4.033482
v 0.831822 1.597471 -2.033482
v 0.831822 1.597471 -4.033482
v 0.707459 1.749008 -2.033482
v 0.707459 1.749008 -4.033482
v 0.555922 1.873371 -2.033482
v 0.555922 1.873371 -4.033482
v 0.383035 1.965781 -2.033482
v 0.383035 1.965781 -4.033482
v 0.195442 2.022686 -2.033482
v 0.195442 2.022686 -4.033482
v 0.000352 2.041901 -2.033482
v 0.000352 2.041901 -4.033482
v -0.194739 2.022686 -2.033482
v -0.194739 2.022686 -4.033482
v -0.382332 1.965780 -2.033482
v -0.382332 1.965781 -4.033482
v -0.555219 1.873370 -2.033482
v -0.555219 1.873371 -4.033482
v -0.706755 1.749007 -2.033482
v -0.706755 1.749008 -4.033482
v -0.831118 1.597471 -2.033482
v -0.831118 1.597471 -4.033482
v -0.923528 1.424584 -2.033482
v -0.923528 1.424584 -4.033482
v -0.980433 1.236991 -2.033482
v -0.980433 1.236991 -4.033482
v -0.999648 1.041900 -2.033482
v -0.999648 1.041900 -4.033482
v -0.980433 0.846810 -2.033482
v -0.980433 0.846810 -4.033482
v -0.923527 0.659217 -2.033482
v -0.923527 0.659217 -4.033482
v 0.576659 0.656826 -5.033482
v 0.640709 0.776657 -5.033482
v 0.680152 0.906681 -5.033482
v 0.693470 1.041901 -5.033482
v 0.680152 1.177122 -5.033482
v 0.640710 1.307146 -5.033482
v 0.576659 1.426977 -5.033482
v 0.490460 1.532010 -5.033482
v 0.385428 1.618208 -5.033482
v 0.265597 1.682259 -5.033482
v 0.135573 1.721701 -5.033482
v 0.000352 1.735019 -5.033482
v -0.134869 1.721701 -5.033482
v -0.264893 1.682259 -5.033482
v -0.384724 1.618207 -5.033482
v -0.489757 1.532009 -5.033482
v -0.575955 1.426977 -5.033482
v -0.640006 1.307145 -5.033482
v -0.679448 1.177121 -5.033482
v -0.692766 1.041901 -5.033482
v -0.679448 0.906680 -5.033482
v -0.640005 0.776656 -5.033482
v -0.575954 0.656825 -5.033482
v 0.000352 0.773919 -5.615912
v 0.052633 0.779069 -5.615912
v 0.102905 0.794318 -5.615912
v 0.149235 0.819083 -5.615912
v 0.189844 0.852410 -5.615912
v 0.223171 0.893019 -5.615912
v 0.247935 0.939349 -5.615912
v 0.263185 0.989621 -5.615912
v 0.268334 1.041901 -5.615912
v 0.263185 1.094182 -5.615912
v 0.247935 1.144453 -5.615912
v 0.223171 1.190784 -5.615912
v 0.189844 1.231393 -5.615912
v 0.149235 1.264720 -5.615912
v 0.102905 1.289484 -5.615912
v 0.052633 1.304734 -5.615912
v 0.000352 1.309883 -5.615912
v -0.051928 1.304734 -5.615912
v -0.102200 1.289484 -5.615912
v -0.148530 1.264720 -5.615912
v -0.189139 1.231393 -5.615912
v -0.222466 1.190784 -5.615912
v -0.247230 1.144453 -5.615912
v -0.262480 1.094182 -5.615912
v -0.267629 1.041901 -5.615912
v -0.262480 0.989620 -5.615912
v -0.247230 0.939349 -5.615912
v -0.222466 0.893018 -5.615912
v -0.189139 0.852409 -5.615912
v -0.148530 0.819082 -5.615912
v -0.102199 0.794318 -5.615912
v -0.051928 0.779069 -5.615912
v 0.051186 1.198321 -5.717017
v 0.048236 1.208044 -5.717017
v 0.043447 1.217005 -5.717017
v 0.037001 1.224859 -5.717017
v 0.029147 1.231305 -5.717017
v 0.020187 1.236094 -5.717017
v 0.010464 1.239043 -5.717017
v 0.000352 1.240039 -5.717017
v -0.009759 1.239043 -5.717017
v -0.019482 1.236094 -5.717017
v -0.028442 1.231305 -5.717017
v -0.036296 1.224859 -5.717017
v -0.042742 1.217005 -5.717017
v -0.047532 1.208044 -5.717017
v -0.050481 1.198321 -5.717017
v 2.000000 -1.000000 -5.000000
v 2.000000 -1.000000 -2.000000
v -2.000000 -1.000000 -2.000000
v -2.000000 -1.000000 -5.000000
v 2.000000 1.000000 -5.000000
v 1.999999 1.000000 -1.999999
v -2.000000 1.000000 -2.000000
v -2.000000 1.000000 -5.000000
v 2.000000 -0.754252 -8.000000
v -1.999999 -0.754252 -8.000000
v 2.000001 0.678639 -8.000000
v -2.000000 0.678639 -8.000000
v 2.000001 -0.224949 -11.000000
v -1.999999 -0.224949 -11.000000
v 2.000001 0.170134 -11.000000
v -1.999999 0.170134 -11.000000
vn 0.956940 -0.290285 -0.000000
vn 0.995185 -0.098017 -0.000000
vn 0.995185 0.098017 0.000000
vn 0.956940 0.290285 0.000000
vn 0.881921 0.471397 0.000000
vn 0.773010 0.634393 0.000000
vn 0.634393 0.773011 0.000000
vn 0.471397 0.881921 -0.000000
vn 0.290283 0.956941 0.000000
vn 0.098018 0.995185 -0.000000
vn -0.098018 0.995185 0.000000
vn -0.290285 0.956940 0.000000
vn -0.471397 0.881921 0.000000
vn -0.634394 0.773010 0.000000
vn -0.773011 0.634393 0.000000
vn -0.881922 0.471396 0.000000
vn -0.956941 0.290284 0.000000
vn -0.995185 0.098016 0.000000
vn -0.995185 -0.098018 -0.000000
vn -0.956940 -0.290286 -0.000000
vn -0.843463 0.450839 -0.292086
vn 0.915210 0.277626 -0.292086
vn -0.093743 0.951787 -0.292086
vn -0.951787 0.093742 -0.292086
vn 0.739301 0.606729 -0.292086
vn -0.450840 0.843462 -0.292086
vn 0.915210 -0.277626 -0.292086
vn -0.915210 -0.277627 -0.292086
vn 0.450841 0.843462 -0.292086
vn -0.739301 0.606728 -0.292086
vn 0.951787 0.093743 -0.292086
vn 0.093743 0.951787 -0.292086
vn -0.915210 0.277625 -0.292086
vn 0.843462 0.450840 -0.292086
vn -0.277626 0.915210 -0.292086
vn -0.951787 -0.093744 -0.292086
vn 0.606729 0.739301 -0.292086
vn -0.606729 0.739301 -0.292086
vn 0.951787 -0.093743 -0.292086
vn 0.277625 0.915210 -0.292086
vn 0.000000 0.000000 -1.000000
vn -0.713530 -0.381391 -0.587721
vn -0.713531 0.381389 -0.587721
vn -0.079303 0.805168 -0.587720
vn 0.625415 0.513265 -0.587720
vn 0.774226 -0.234859 -0.587720
vn -0.774226 0.234858 -0.587721
vn -0.234859 0.774226 -0.587720
vn 0.513265 0.625415 -0.587720
vn 0.805169 -0.079302 -0.587720
vn -0.805168 0.079302 -0.587721
vn -0.381391 0.713530 -0.587720
vn 0.381390 0.713531 -0.587720
vn 0.805169 0.079302 -0.587720
vn -0.805168 -0.079303 -0.587721
vn -0.513265 0.625415 -0.587721
vn 0.234858 0.774226 -0.587720
vn 0.774226 0.234859 -0.587720
vn -0.774226 -0.234860 -0.587721
vn -0.625415 0.513264 -0.587721
vn 0.079302 0.805168 -0.587720
vn 0.713531 0.381390 -0.587720
vn 0.713531 -0.381390 -0.587720
vn -0.501762 0.268197 -0.822378
vn 0.080772 0.820082 -0.566517
vn 0.483593 0.146696 -0.862912
vn -0.483594 0.146696 -0.862912
vn -0.080772 0.820082 -0.566517
vn 0.501762 0.268198 -0.822378
vn -0.233028 0.768191 -0.596306
vn 0.492545 0.404220 -0.770718
vn -0.358931 0.671512 -0.648259
vn 0.446572 0.544150 -0.710263
vn -0.446573 0.544150 -0.710263
vn 0.358931 0.671512 -0.648259
vn -0.492545 0.404220 -0.770717
vn 0.233027 0.768191 -0.596306
vn 0.000000 -1.000000 0.000000
vn -0.000000 1.000000 0.000000
vn 1.000000 -0.000000 0.000000
vn -0.000000 -0.000000 1.000000
vn -1.000000 -0.000000 -0.000000
vn 0.000000 -0.996662 -0.081643
vn 0.000000 0.994312 -0.106511
vn 0.000000 0.985937 -0.167118
vn 0.000000 -0.984790 -0.173751
vn 0.881922 0.471396 0.000000
vn 0.634394 0.773010 0.000000
vn 0.471396 0.881922 0.000000
vn 0.290285 0.956940 0.000000
vn 0.098017 0.995185 0.000000
vn -0.098017 0.995185 0.000000
vn -0.290286 0.956940 0.000000
vn -0.093744 0.951787 -0.292086
vn -0.450841 0.843462 -0.292086
vn 0.450840 0.843462 -0.292086
vn 0.843463 0.450840 -0.292086
vn 0.079303 0.805168 -0.587720
vn -0.713531 0.381390 -0.587721
vn 0.625416 0.513264 -0.587720
vn 0.774227 -0.234858 -0.587720
vn 0.805169 -0.079303 -0.587720
vn -0.805168 0.079301 -0.587721
vn -0.381390 0.713531 -0.587721
vn 0.774227 0.234858 -0.587720
vn 0.234858 0.774227 -0.587720
vn 0.713531 0.381391 -0.587720
vn 0.713531 -0.381391 -0.587720
vn 0.080770 0.820082 -0.566517
vn 0.483593 0.146695 -0.862913
vn -0.483593 0.146696 -0.862912
vn -0.080770 0.820082 -0.566517
vn 0.501761 0.268200 -0.822377
vn -0.233035 0.768188 -0.596307
vn 0.492545 0.404218 -0.770718
vn -0.358927 0.671515 -0.648258
vn 0.446573 0.544150 -0.710263
vn 0.358927 0.671515 -0.648258
vn -0.492546 0.404218 -0.770718
vn 0.233034 0.768189 -0.596306
vn 0.951787 0.093742 -0.292086
vn -1.000000 -0.000001 0.000000
vn 1.000000 -0.000001 0.000000
usemtl Material
s off
f 1//1 2//1 4//1
f 3//2 4//2 6//2
f 5//3 6//3 8//3
f 7//4 8//4 10//4
f 9//5 10//5 12//5
f 11//6 12//6 14//6
f 13//7 14//7 16//7
f 15//8 16//8 18//8
f 17//9 18//9 20//9
f 19//10 20//10 22//10
f 21//11 22//11 24//11
f 23//12 24//12 26//12
f 25//13 26//13 28//13
f 27//14 28//14 30//14
f 29//15 30//15 32//15
f 31//16 32//16 34//16
f 33//17 34//17 36//17
f 35//18 36//18 38//18
f 37//19 38//19 40//19
f 39//20 40//20 42//20
f 34//21 32//21 59//21
f 10//22 8//22 47//22
f 24//23 22//23 54//23
f 38//24 36//24 61//24
f 14//25 12//25 49//25
f 28//26 26//26 56//26
f 4//27 2//27 44//27
f 42//28 40//28 63//28
f 18//29 16//29 51//29
f 32//30 30//30 58//30
f 8//31 6//31 47//31
f 22//32 20//32 53//32
f 36//33 34//33 60//33
f 12//34 10//34 48//34
f 26//35 24//35 55//35
f 40//36 38//36 62//36
f 16//37 14//37 51//37
f 30//38 28//38 57//38
f 6//39 4//39 45//39
f 20//40 18//40 52//40
f 68//41 67//41 94//41
f 65//42 64//42 92//42
f 60//43 59//43 87//43
f 55//44 54//44 82//44
f 50//45 49//45 77//45
f 45//46 44//46 72//46
f 61//47 60//47 88//47
f 56//48 55//48 83//48
f 51//49 50//49 78//49
f 46//50 45//50 73//50
f 62//51 61//51 89//51
f 57//52 56//52 85//52
f 52//53 51//53 80//53
f 47//54 46//54 75//54
f 63//55 62//55 90//55
f 58//56 57//56 85//56
f 53//57 52//57 81//57
f 48//58 47//58 75//58
f 64//59 63//59 91//59
f 59//60 58//60 87//60
f 54//61 53//61 82//61
f 49//62 48//62 76//62
f 44//63 43//63 71//63
f 88//64 87//64 111//64
f 82//65 81//65 104//65
f 76//66 75//66 98//66
f 89//67 88//67 112//67
f 83//68 82//68 106//68
f 77//69 76//69 99//69
f 84//70 83//70 107//70
f 78//71 77//71 100//71
f 85//72 84//72 108//72
f 79//73 78//73 101//73
f 86//74 85//74 109//74
f 80//75 79//75 102//75
f 87//76 86//76 110//76
f 81//77 80//77 103//77
f 113//78 114//78 115//78
f 117//79 120//79 118//79
f 113//80 117//80 114//80
f 114//81 118//81 115//81
f 115//82 119//82 120//82
f 116//82 120//82 124//82
f 122//82 124//82 126//82
f 113//83 116//83 121//83
f 120//84 117//84 123//84
f 117//80 113//80 123//80
f 127//41 125//41 128//41
f 124//85 123//85 127//85
f 121//86 122//86 126//86
f 123//80 121//80 125//80
f 3//1 1//1 4//1
f 5//2 3//2 6//2
f 7//3 5//3 8//3
f 9//4 7//4 10//4
f 11//87 9//87 12//87
f 13//6 11//6 14//6
f 15//88 13//88 16//88
f 17//89 15//89 18//89
f 19//90 17//90 20//90
f 21//91 19//91 22//91
f 23//92 21//92 24//92
f 25//93 23//93 26//93
f 27//13 25//13 28//13
f 29//14 27//14 30//14
f 31//15 29//15 32//15
f 33//16 31//16 34//16
f 35//17 33//17 36//17
f 37//18 35//18 38//18
f 39//19 37//19 40//19
f 41//20 39//20 42//20
f 60//21 34//21 59//21
f 48//22 10//22 47//22
f 55//94 24//94 54//94
f 62//24 38//24 61//24
f 50//25 14//25 49//25
f 57//95 28//95 56//95
f 45//27 4//27 44//27
f 64//28 42//28 63//28
f 52//96 18//96 51//96
f 59//30 32//30 58//30
f 125//41 126//41 128//41
f 54//32 22//32 53//32
f 61//33 36//33 60//33
f 49//97 12//97 48//97
f 56//35 26//35 55//35
f 63//36 40//36 62//36
f 51//53 79//53 80//53
f 58//38 30//38 57//38
f 46//39 6//39 45//39
f 53//40 20//40 52//40
f 53//98 81//98 82//98
f 68//41 87//41 70//41
f 67//41 97//41 94//41
f 97//41 96//41 94//41
f 68//41 94//41 90//41
f 83//41 82//41 81//41
f 85//41 75//41 87//41
f 90//41 89//41 68//41
f 89//41 88//41 68//41
f 88//41 87//41 68//41
f 77//41 79//41 78//41
f 84//41 83//41 81//41
f 67//41 66//41 97//41
f 79//41 81//41 80//41
f 77//41 81//41 79//41
f 77//41 84//41 81//41
f 84//41 77//41 75//41
f 46//54 74//54 75//54
f 75//41 85//41 84//41
f 71//41 73//41 72//41
f 74//41 73//41 75//41
f 58//60 86//60 87//60
f 86//41 85//41 87//41
f 94//41 93//41 92//41
f 71//41 70//41 87//41
f 73//41 71//41 87//41
f 91//41 90//41 94//41
f 69//41 68//41 70//41
f 93//42 65//42 92//42
f 88//99 60//99 87//99
f 83//44 55//44 82//44
f 78//100 50//100 77//100
f 73//101 45//101 72//101
f 89//47 61//47 88//47
f 84//48 56//48 83//48
f 79//49 51//49 78//49
f 74//102 46//102 73//102
f 90//103 62//103 89//103
f 14//37 50//37 51//37
f 96//41 95//41 94//41
f 56//104 84//104 85//104
f 91//55 63//55 90//55
f 86//56 58//56 85//56
f 92//41 91//41 94//41
f 76//105 48//105 75//105
f 92//59 64//59 91//59
f 52//106 80//106 81//106
f 75//41 73//41 87//41
f 77//107 49//107 76//107
f 72//108 44//108 71//108
f 87//64 110//64 111//64
f 105//109 82//109 104//109
f 99//110 76//110 98//110
f 88//111 111//111 112//111
f 82//112 105//112 106//112
f 100//113 77//113 99//113
f 83//114 106//114 107//114
f 101//115 78//115 100//115
f 84//116 107//116 108//116
f 102//117 79//117 101//117
f 85//74 108//74 109//74
f 103//118 80//118 102//118
f 86//119 109//119 110//119
f 104//120 81//120 103//120
f 116//78 113//78 115//78
f 118//81 119//81 115//81
f 6//121 46//121 47//121
f 117//80 118//80 114//80
f 116//82 115//82 120//82
f 122//82 116//82 124//82
f 124//122 128//122 126//122
f 120//79 119//79 118//79
f 124//84 120//84 123//84
f 113//80 121//80 123//80
f 77//41 76//41 75//41
f 128//85 124//85 127//85
f 125//86 121//86 126//86
f 127//123 123//123 125//123
f 116//83 122//83 121//83
